<svg width="60" height="60" viewBox="0 0 60 60" fill="none" xmlns="http://www.w3.org/2000/svg">
<g clip-path="url(#clip0_153_52)">
<rect width="60" height="60" rx="30" fill="#F7F5F0"/>
<path d="M10.3746 49.078L11.7386 48.768C13.1852 48.3133 14.1359 47.776 14.5906 47.156C15.0452 46.4947 15.2726 45.296 15.2726 43.56V18.14C15.2726 16.404 15.0246 15.2053 14.5286 14.544C14.0739 13.8413 13.1439 13.304 11.7386 12.932L10.3746 12.622L11.0566 10.7H23.3946L24.1386 11.568L23.3946 12.622C22.4439 13.8207 21.7826 15.1227 21.4106 16.528C21.0386 17.892 20.8526 19.69 20.8526 21.922V28.866H39.2046V18.14C39.2046 16.4453 38.9566 15.2467 38.4606 14.544C37.9646 13.8413 36.9932 13.304 35.5466 12.932L34.3686 12.622L35.0506 10.7H47.2646L48.1326 11.568L47.2646 12.622C46.3552 13.862 45.6939 15.1847 45.2806 16.59C44.9086 17.954 44.7226 19.7313 44.7226 21.922V43.932C44.7226 45.544 44.9499 46.6807 45.4046 47.342C45.9006 47.962 46.8306 48.4787 48.1946 48.892L49.3726 49.202L48.7526 51H35.0506L34.3686 49.078L35.5466 48.768C37.0346 48.3133 38.0059 47.776 38.4606 47.156C38.9566 46.4947 39.2046 45.296 39.2046 43.56V32.214H20.8526V43.932C20.8526 45.544 21.0799 46.6807 21.5346 47.342C21.9892 47.962 22.8986 48.4787 24.2626 48.892L25.3786 49.202L24.8826 51H11.0566L10.3746 49.078Z" fill="#1A362D"/>
</g>
<defs>
<clipPath id="clip0_153_52">
<rect width="60" height="60" rx="30" fill="white"/>
</clipPath>
</defs>
</svg>
